<?xml version="1.0" encoding="iso-8859-1"?>
<!-- Generator: Adobe Illustrator 18.0.0, SVG Export Plug-In . SVG Version: 6.00 Build 0)  -->
<!DOCTYPE svg PUBLIC "-//W3C//DTD SVG 1.1//EN" "http://www.w3.org/Graphics/SVG/1.1/DTD/svg11.dtd">
<svg xmlns:xlink="http://www.w3.org/1999/xlink" xmlns="http://www.w3.org/2000/svg" version="1.1" id="Capa_1" x="0px" y="0px" viewBox="0 0 456.637 456.637" style="enable-background:new 0 0 456.637 456.637;" xml:space="preserve" width="512px" height="512px">
<g>
	<path d="M343.772,214.807l-189.1-98.002c-4.718-2.452-10.367-2.259-14.909,0.506c-4.541,2.766-7.313,7.685-7.313,13.006v196.004   c0,5.321,2.772,10.241,7.313,13.007c4.542,2.765,10.19,2.958,14.909,0.505l189.1-98.002c5.046-2.616,8.22-7.834,8.22-13.512   C351.991,222.641,348.817,217.424,343.772,214.807z" fill="#FFFFFF"/>
	<path d="M228.318,0C102.223,0,0,102.223,0,228.319s102.223,228.318,228.318,228.318s228.319-102.223,228.319-228.318   S354.414,0,228.318,0z M228.318,410.974c-100.714,0-182.655-81.933-182.655-182.655c0-100.722,81.94-182.654,182.655-182.654   c100.714,0,182.655,81.933,182.655,182.654C410.974,329.041,329.033,410.974,228.318,410.974z" fill="#FFFFFF"/>
</g>
</svg>
