<?xml version="1.0" encoding="utf-8"?>
<!DOCTYPE svg PUBLIC "-//W3C//DTD SVG 1.1//EN" "http://www.w3.org/Graphics/SVG/1.1/DTD/svg11.dtd">
<svg xmlns:xlink="http://www.w3.org/1999/xlink" version="1.1" xmlns="http://www.w3.org/2000/svg" width="25" height="25"
     viewBox="0 0 25 25">
    <path d="m21.25,5.983346l-4.75,0l0,4.433327l3.75,0l0,6.649989l-15.5,0l0,-6.649989l5.25,0l0,3.483328l5,-5.699991l-5,-5.699991l0,3.483328l-6.25,0c-1.38,0 -2.5,1.417399 -2.5,3.166662l0,9.183316c0,1.747997 1.12,3.166662 2.5,3.166662l17.5,0c1.381001,0 2.5,-1.418665 2.5,-3.166662l0,-9.183316c0,-1.749263 -1.118999,-3.166662 -2.5,-3.166662z"/>
    <rect height="5.499952" width="1.999982" y="11.000014" x="16.187465"/>
    <rect transform="rotate(-39.3058 15.4442 12.4041)" height="1.210458" width="2.82073" y="11.798861" x="14.033831"/>
</svg>