<?xml version="1.0" encoding="utf-8"?>
<!-- Generator: Adobe Illustrator 19.0.0, SVG Export Plug-In . SVG Version: 6.00 Build 0)  -->
<svg version="1.1" id="Layer_1" xmlns="http://www.w3.org/2000/svg" xmlns:xlink="http://www.w3.org/1999/xlink" x="0px" y="0px"
	 viewBox="0 0 96 96" style="enable-background:new 0 0 96 96;" xml:space="preserve">
<style type="text/css">
	.st0{fill:#333333;}
</style>
<g id="XMLID_1_">
	<path id="XMLID_3_" class="st0" d="M46,19c-1.2-0.5-2.6-0.2-3.5,0.7L28.5,35h-9.8c-1.8,0-3.3,1.5-3.3,3.3v19.5
		c0,1.8,1.5,3.3,3.3,3.3h9.8l14,15.3c0.9,0.9,2.3,1.2,3.5,0.7c1.2-0.5,2-1.7,2-3V22C48,20.7,47.2,19.5,46,19z"/>
	<polygon id="XMLID_4_" class="st0" points="80.5,44.7 70.8,44.7 70.8,35 64.3,35 64.3,44.7 54.5,44.7 54.5,51.2 64.3,51.2 64.3,61 
		70.8,61 70.8,51.2 80.5,51.2 	"/>
</g>
</svg>
